# xmcd CD database file
#
# Track frame offsets:
#	150
#	13960
#	26487
#	39180
#	52380
#	64917
#	78350
#	91377
#	104337
#	117917
#	128527
#	140312
#	152702
#	164865
#	177125
#	189697
#	201442
#	213092
#	226282
#	239682
#	253792
#	267115
#	280687
#	293402
#	306357
#	318367
#
# Disc length: 4427 seconds
#
# Revision: 0
# Processed by: cddbd v1.4PL0 Copyright (c) Steve Scherf et al.
# Submitted via: CDex 1.50
#
DISCID=7911491a
DTITLE=Cowboy Copas - Tennessee Waltz
DYEAR=1945
DGENRE=Country
TTITLE0=The Tennessee Waltz
TTITLE1=Filipino Baby
TTITLE2=Tragic Romance
TTITLE3=I Dont Blame You
TTITLE4=Sweet Thing
TTITLE5=Sundown and Sorrow
TTITLE6=Kentucky Waltz
TTITLE7=Breeze, Blow My Baby Back Home
TTITLE8=Its A Lonely World When Youre All Alone
TTITLE9=Dont Let Them Change Your Mind
TTITLE10=Signed, Sealed and Delivered
TTITLE11=Crazy Over You
TTITLE12=Believe It Or Not
TTITLE13=Tenneessee Moon
TTITLE14=Down In Nashville, Tennessee
TTITLE15=Im Waltzin WIth Tears In My Eyes
TTITLE16=Hangmans Boogie
TTITLE17=Oceans of Love
TTITLE18=The Road of Broken hearts
TTITLE19=Feudin Boogie
TTITLE20=Steppin Out
TTITLE21=From the Manger To The Cross
TTITLE22=My True Confession
TTITLE23=The Strange Little Girl
TTITLE24=Tennessee Flat Top Guitar
TTITLE25=Tis Sweet To Be Remembered
EXTD=YEAR: 1945
EXTT0=
EXTT1=
EXTT2=
EXTT3=
EXTT4=
EXTT5=
EXTT6=
EXTT7=
EXTT8=
EXTT9=
EXTT10=
EXTT11=
EXTT12=
EXTT13=
EXTT14=
EXTT15=
EXTT16=
EXTT17=
EXTT18=
EXTT19=
EXTT20=
EXTT21=
EXTT22=
EXTT23=
EXTT24=
EXTT25=
PLAYORDER=
